<mxfile host="app.diagrams.net" modified="2021-03-04T08:55:15.758Z" agent="5.0 (Windows NT 10.0; Win64; x64) AppleWebKit/537.36 (KHTML, like Gecko) Chrome/88.0.4324.182 Safari/537.36 Edg/88.0.705.81" etag="6LBKQXnV52pN6wQXIdAP" version="14.4.4" type="github">
  <diagram id="Degjh3hVgdgURm6GWzqY" name="Page-1">
    <mxGraphModel dx="946" dy="572" grid="1" gridSize="10" guides="1" tooltips="1" connect="1" arrows="1" fold="1" page="1" pageScale="1" pageWidth="827" pageHeight="1169" math="0" shadow="0">
      <root>
        <mxCell id="0" />
        <mxCell id="1" parent="0" />
        <mxCell id="o9FF5olI-wcS_omxc1xt-41" style="edgeStyle=orthogonalEdgeStyle;rounded=0;orthogonalLoop=1;jettySize=auto;html=1;exitX=0.5;exitY=1;exitDx=0;exitDy=0;entryX=0.5;entryY=0;entryDx=0;entryDy=0;" edge="1" parent="1" source="o9FF5olI-wcS_omxc1xt-17" target="o9FF5olI-wcS_omxc1xt-18">
          <mxGeometry relative="1" as="geometry" />
        </mxCell>
        <mxCell id="o9FF5olI-wcS_omxc1xt-51" style="edgeStyle=orthogonalEdgeStyle;rounded=0;orthogonalLoop=1;jettySize=auto;html=1;exitX=1;exitY=0.5;exitDx=0;exitDy=0;entryX=0;entryY=0.5;entryDx=0;entryDy=0;" edge="1" parent="1" source="o9FF5olI-wcS_omxc1xt-17" target="o9FF5olI-wcS_omxc1xt-24">
          <mxGeometry relative="1" as="geometry" />
        </mxCell>
        <mxCell id="o9FF5olI-wcS_omxc1xt-17" value="绪论" style="rounded=0;whiteSpace=wrap;html=1;" vertex="1" parent="1">
          <mxGeometry x="80" y="440" width="120" height="60" as="geometry" />
        </mxCell>
        <mxCell id="o9FF5olI-wcS_omxc1xt-42" style="edgeStyle=orthogonalEdgeStyle;rounded=0;orthogonalLoop=1;jettySize=auto;html=1;exitX=0.5;exitY=1;exitDx=0;exitDy=0;entryX=0.5;entryY=0;entryDx=0;entryDy=0;" edge="1" parent="1" source="o9FF5olI-wcS_omxc1xt-18" target="o9FF5olI-wcS_omxc1xt-19">
          <mxGeometry relative="1" as="geometry" />
        </mxCell>
        <mxCell id="o9FF5olI-wcS_omxc1xt-52" style="edgeStyle=orthogonalEdgeStyle;rounded=0;orthogonalLoop=1;jettySize=auto;html=1;exitX=1;exitY=0.5;exitDx=0;exitDy=0;" edge="1" parent="1" source="o9FF5olI-wcS_omxc1xt-18" target="o9FF5olI-wcS_omxc1xt-47">
          <mxGeometry relative="1" as="geometry" />
        </mxCell>
        <mxCell id="o9FF5olI-wcS_omxc1xt-18" value="基础概念" style="rounded=0;whiteSpace=wrap;html=1;" vertex="1" parent="1">
          <mxGeometry x="80" y="560" width="120" height="60" as="geometry" />
        </mxCell>
        <mxCell id="o9FF5olI-wcS_omxc1xt-43" style="edgeStyle=orthogonalEdgeStyle;rounded=0;orthogonalLoop=1;jettySize=auto;html=1;exitX=0.5;exitY=1;exitDx=0;exitDy=0;entryX=0.5;entryY=0;entryDx=0;entryDy=0;" edge="1" parent="1" source="o9FF5olI-wcS_omxc1xt-19" target="o9FF5olI-wcS_omxc1xt-20">
          <mxGeometry relative="1" as="geometry" />
        </mxCell>
        <mxCell id="o9FF5olI-wcS_omxc1xt-19" value="界面设计和程序逻辑设计" style="rounded=0;whiteSpace=wrap;html=1;" vertex="1" parent="1">
          <mxGeometry x="80" y="640" width="120" height="60" as="geometry" />
        </mxCell>
        <mxCell id="o9FF5olI-wcS_omxc1xt-44" style="edgeStyle=orthogonalEdgeStyle;rounded=0;orthogonalLoop=1;jettySize=auto;html=1;exitX=0.5;exitY=1;exitDx=0;exitDy=0;entryX=0.5;entryY=0;entryDx=0;entryDy=0;" edge="1" parent="1" source="o9FF5olI-wcS_omxc1xt-20" target="o9FF5olI-wcS_omxc1xt-21">
          <mxGeometry relative="1" as="geometry" />
        </mxCell>
        <mxCell id="o9FF5olI-wcS_omxc1xt-53" style="edgeStyle=orthogonalEdgeStyle;rounded=0;orthogonalLoop=1;jettySize=auto;html=1;exitX=1;exitY=0.5;exitDx=0;exitDy=0;" edge="1" parent="1" source="o9FF5olI-wcS_omxc1xt-20" target="o9FF5olI-wcS_omxc1xt-50">
          <mxGeometry relative="1" as="geometry" />
        </mxCell>
        <mxCell id="o9FF5olI-wcS_omxc1xt-20" value="功能模块实现" style="rounded=0;whiteSpace=wrap;html=1;" vertex="1" parent="1">
          <mxGeometry x="80" y="720" width="120" height="60" as="geometry" />
        </mxCell>
        <mxCell id="o9FF5olI-wcS_omxc1xt-45" style="edgeStyle=orthogonalEdgeStyle;rounded=0;orthogonalLoop=1;jettySize=auto;html=1;exitX=0.5;exitY=1;exitDx=0;exitDy=0;entryX=0.5;entryY=0;entryDx=0;entryDy=0;" edge="1" parent="1" source="o9FF5olI-wcS_omxc1xt-21" target="o9FF5olI-wcS_omxc1xt-22">
          <mxGeometry relative="1" as="geometry" />
        </mxCell>
        <mxCell id="o9FF5olI-wcS_omxc1xt-21" value="效果演示" style="rounded=0;whiteSpace=wrap;html=1;" vertex="1" parent="1">
          <mxGeometry x="80" y="800" width="120" height="60" as="geometry" />
        </mxCell>
        <mxCell id="o9FF5olI-wcS_omxc1xt-46" style="edgeStyle=orthogonalEdgeStyle;rounded=0;orthogonalLoop=1;jettySize=auto;html=1;exitX=0.5;exitY=1;exitDx=0;exitDy=0;entryX=0.5;entryY=0;entryDx=0;entryDy=0;" edge="1" parent="1" source="o9FF5olI-wcS_omxc1xt-22" target="o9FF5olI-wcS_omxc1xt-23">
          <mxGeometry relative="1" as="geometry" />
        </mxCell>
        <mxCell id="o9FF5olI-wcS_omxc1xt-22" value="结论" style="rounded=0;whiteSpace=wrap;html=1;" vertex="1" parent="1">
          <mxGeometry x="80" y="880" width="120" height="60" as="geometry" />
        </mxCell>
        <mxCell id="o9FF5olI-wcS_omxc1xt-23" value="文献参考" style="rounded=0;whiteSpace=wrap;html=1;" vertex="1" parent="1">
          <mxGeometry x="80" y="960" width="120" height="60" as="geometry" />
        </mxCell>
        <mxCell id="o9FF5olI-wcS_omxc1xt-24" value="研究背景&lt;br&gt;研究现状" style="rounded=0;whiteSpace=wrap;html=1;" vertex="1" parent="1">
          <mxGeometry x="270" y="450" width="80" height="40" as="geometry" />
        </mxCell>
        <mxCell id="o9FF5olI-wcS_omxc1xt-47" value="Unity3D相关概念&lt;br&gt;音乐概念&lt;br&gt;Unity插件概念" style="rounded=0;whiteSpace=wrap;html=1;" vertex="1" parent="1">
          <mxGeometry x="270" y="542.5" width="80" height="95" as="geometry" />
        </mxCell>
        <mxCell id="o9FF5olI-wcS_omxc1xt-50" value="场景切换模块&lt;br&gt;输入输出模块&lt;br&gt;时间同步&lt;br&gt;音频管理模块&lt;br&gt;谱面生成模块" style="rounded=0;whiteSpace=wrap;html=1;" vertex="1" parent="1">
          <mxGeometry x="270" y="710" width="80" height="80" as="geometry" />
        </mxCell>
      </root>
    </mxGraphModel>
  </diagram>
</mxfile>
